# Blender v2.93.5 OBJ File: ''
# www.blender.org
mtllib valjak.mtl
o Cylinder
v 0.000000 -100.000000 -100.000000
v 0.000000 100.000000 -100.000000
v 19.509033 -100.000000 -98.078522
v 19.509033 100.000000 -98.078522
v 38.268345 -100.000000 -92.387947
v 38.268345 100.000000 -92.387947
v 55.557026 -100.000000 -83.146957
v 55.557026 100.000000 -83.146957
v 70.710678 -100.000000 -70.710678
v 70.710678 100.000000 -70.710678
v 83.146957 -100.000000 -55.557026
v 83.146957 100.000000 -55.557026
v 92.387947 -100.000000 -38.268341
v 92.387947 100.000000 -38.268341
v 98.078522 -100.000000 -19.509035
v 98.078522 100.000000 -19.509035
v 100.000000 -100.000000 0.000004
v 100.000000 100.000000 0.000004
v 98.078522 -100.000000 19.509033
v 98.078522 100.000000 19.509033
v 92.387955 -100.000000 38.268341
v 92.387955 100.000000 38.268341
v 83.146965 -100.000000 55.557018
v 83.146965 100.000000 55.557018
v 70.710678 -100.000000 70.710678
v 70.710678 100.000000 70.710678
v 55.557018 -100.000000 83.146965
v 55.557018 100.000000 83.146965
v 38.268349 -100.000000 92.387947
v 38.268349 100.000000 92.387947
v 19.509031 -100.000000 98.078529
v 19.509031 100.000000 98.078529
v -0.000009 -100.000000 100.000000
v -0.000009 100.000000 100.000000
v -19.509026 -100.000000 98.078529
v -19.509026 100.000000 98.078529
v -38.268341 -100.000000 92.387947
v -38.268341 100.000000 92.387947
v -55.557030 -100.000000 83.146957
v -55.557030 100.000000 83.146957
v -70.710670 -100.000000 70.710686
v -70.710670 100.000000 70.710686
v -83.146950 -100.000000 55.557041
v -83.146950 100.000000 55.557041
v -92.387947 -100.000000 38.268356
v -92.387947 100.000000 38.268356
v -98.078522 -100.000000 19.509039
v -98.078522 100.000000 19.509039
v -100.000000 -100.000000 -0.000001
v -100.000000 100.000000 -0.000001
v -98.078522 -100.000000 -19.509041
v -98.078522 100.000000 -19.509041
v -92.387947 -100.000000 -38.268360
v -92.387947 100.000000 -38.268360
v -83.146973 -100.000000 -55.557007
v -83.146973 100.000000 -55.557007
v -70.710686 -100.000000 -70.710670
v -70.710686 100.000000 -70.710670
v -55.557030 -100.000000 -83.146957
v -55.557030 100.000000 -83.146957
v -38.268341 -100.000000 -92.387955
v -38.268341 100.000000 -92.387955
v -19.509024 -100.000000 -98.078529
v -19.509024 100.000000 -98.078529
vt 1.000000 1.000000
vt 0.968750 0.500000
vt 1.000000 0.500000
vt 0.968750 1.000000
vt 0.937500 0.500000
vt 0.937500 1.000000
vt 0.906250 0.500000
vt 0.906250 1.000000
vt 0.875000 0.500000
vt 0.875000 1.000000
vt 0.843750 0.500000
vt 0.843750 1.000000
vt 0.812500 0.500000
vt 0.812500 1.000000
vt 0.781250 0.500000
vt 0.781250 1.000000
vt 0.750000 0.500000
vt 0.750000 1.000000
vt 0.718750 0.500000
vt 0.718750 1.000000
vt 0.687500 0.500000
vt 0.687500 1.000000
vt 0.656250 0.500000
vt 0.656250 1.000000
vt 0.625000 0.500000
vt 0.625000 1.000000
vt 0.593750 0.500000
vt 0.593750 1.000000
vt 0.562500 0.500000
vt 0.562500 1.000000
vt 0.531250 0.500000
vt 0.531250 1.000000
vt 0.500000 0.500000
vt 0.500000 1.000000
vt 0.468750 0.500000
vt 0.468750 1.000000
vt 0.437500 0.500000
vt 0.437500 1.000000
vt 0.406250 0.500000
vt 0.406250 1.000000
vt 0.375000 0.500000
vt 0.375000 1.000000
vt 0.343750 0.500000
vt 0.343750 1.000000
vt 0.312500 0.500000
vt 0.312500 1.000000
vt 0.281250 0.500000
vt 0.281250 1.000000
vt 0.250000 0.500000
vt 0.250000 1.000000
vt 0.218750 0.500000
vt 0.218750 1.000000
vt 0.187500 0.500000
vt 0.187500 1.000000
vt 0.156250 0.500000
vt 0.156250 1.000000
vt 0.125000 0.500000
vt 0.125000 1.000000
vt 0.093750 0.500000
vt 0.093750 1.000000
vt 0.062500 0.500000
vt 0.062500 1.000000
vt 0.031250 0.500000
vt 0.031250 1.000000
vt 0.000000 0.500000
vt 0.985388 0.296822
vt 0.796822 0.014612
vt 0.514612 0.203178
vt 0.703178 0.485388
vt 0.750000 0.490000
vt 0.796822 0.485388
vt 0.841844 0.471731
vt 0.883337 0.449553
vt 0.919706 0.419706
vt 0.949553 0.383337
vt 0.971731 0.341844
vt 0.990000 0.250000
vt 0.985388 0.203178
vt 0.971731 0.158156
vt 0.949553 0.116663
vt 0.919706 0.080294
vt 0.883337 0.050447
vt 0.841844 0.028269
vt 0.750000 0.010000
vt 0.703178 0.014612
vt 0.658156 0.028269
vt 0.616663 0.050447
vt 0.580294 0.080294
vt 0.550447 0.116663
vt 0.528269 0.158156
vt 0.510000 0.250000
vt 0.514612 0.296822
vt 0.528269 0.341844
vt 0.550447 0.383337
vt 0.580294 0.419706
vt 0.616663 0.449553
vt 0.658156 0.471731
vt 0.000000 1.000000
vn 0.0980 0.0000 -0.9952
vn 0.2903 0.0000 -0.9569
vn 0.4714 0.0000 -0.8819
vn 0.6344 0.0000 -0.7730
vn 0.7730 0.0000 -0.6344
vn 0.8819 0.0000 -0.4714
vn 0.9569 0.0000 -0.2903
vn 0.9952 0.0000 -0.0980
vn 0.9952 0.0000 0.0980
vn 0.9569 0.0000 0.2903
vn 0.8819 0.0000 0.4714
vn 0.7730 0.0000 0.6344
vn 0.6344 0.0000 0.7730
vn 0.4714 0.0000 0.8819
vn 0.2903 0.0000 0.9569
vn 0.0980 0.0000 0.9952
vn -0.0980 0.0000 0.9952
vn -0.2903 0.0000 0.9569
vn -0.4714 0.0000 0.8819
vn -0.6344 0.0000 0.7730
vn -0.7730 0.0000 0.6344
vn -0.8819 0.0000 0.4714
vn -0.9569 0.0000 0.2903
vn -0.9952 0.0000 0.0980
vn -0.9952 0.0000 -0.0980
vn -0.9569 0.0000 -0.2903
vn -0.8819 0.0000 -0.4714
vn -0.7730 0.0000 -0.6344
vn -0.6344 0.0000 -0.7730
vn -0.4714 0.0000 -0.8819
vn 0.0000 1.0000 0.0000
vn -0.2903 0.0000 -0.9569
vn -0.0980 0.0000 -0.9952
vn 0.0000 -1.0000 0.0000
usemtl None
s off
f 2/1/1 3/2/1 1/3/1
f 4/4/2 5/5/2 3/2/2
f 6/6/3 7/7/3 5/5/3
f 8/8/4 9/9/4 7/7/4
f 10/10/5 11/11/5 9/9/5
f 12/12/6 13/13/6 11/11/6
f 14/14/7 15/15/7 13/13/7
f 16/16/8 17/17/8 15/15/8
f 18/18/9 19/19/9 17/17/9
f 20/20/10 21/21/10 19/19/10
f 22/22/11 23/23/11 21/21/11
f 24/24/12 25/25/12 23/23/12
f 26/26/13 27/27/13 25/25/13
f 28/28/14 29/29/14 27/27/14
f 30/30/15 31/31/15 29/29/15
f 32/32/16 33/33/16 31/31/16
f 34/34/17 35/35/17 33/33/17
f 36/36/18 37/37/18 35/35/18
f 38/38/19 39/39/19 37/37/19
f 40/40/20 41/41/20 39/39/20
f 42/42/21 43/43/21 41/41/21
f 44/44/22 45/45/22 43/43/22
f 46/46/23 47/47/23 45/45/23
f 48/48/24 49/49/24 47/47/24
f 50/50/25 51/51/25 49/49/25
f 52/52/26 53/53/26 51/51/26
f 54/54/27 55/55/27 53/53/27
f 56/56/28 57/57/28 55/55/28
f 58/58/29 59/59/29 57/57/29
f 60/60/30 61/61/30 59/59/30
f 54/54/31 38/38/31 22/22/31
f 62/62/32 63/63/32 61/61/32
f 64/64/33 1/65/33 63/63/33
f 15/66/34 31/67/34 47/68/34
f 6/6/31 4/4/31 62/62/31
f 4/4/31 2/1/31 62/62/31
f 2/1/31 64/64/31 62/62/31
f 62/62/31 60/60/31 58/58/31
f 58/58/31 56/56/31 62/62/31
f 56/56/31 54/54/31 62/62/31
f 54/54/31 52/52/31 50/50/31
f 50/50/31 48/48/31 46/46/31
f 46/46/31 44/44/31 42/42/31
f 42/42/31 40/40/31 38/38/31
f 38/38/31 36/36/31 34/34/31
f 34/34/31 32/32/31 30/30/31
f 30/30/31 28/28/31 26/26/31
f 26/26/31 24/24/31 22/22/31
f 22/22/31 20/20/31 18/18/31
f 18/18/31 16/16/31 14/14/31
f 14/14/31 12/12/31 10/10/31
f 10/10/31 8/8/31 6/6/31
f 54/54/31 50/50/31 38/38/31
f 50/50/31 46/46/31 38/38/31
f 46/46/31 42/42/31 38/38/31
f 38/38/31 34/34/31 30/30/31
f 30/30/31 26/26/31 38/38/31
f 26/26/31 22/22/31 38/38/31
f 22/22/31 18/18/31 6/6/31
f 18/18/31 14/14/31 6/6/31
f 14/14/31 10/10/31 6/6/31
f 6/6/31 62/62/31 54/54/31
f 6/6/31 54/54/31 22/22/31
f 63/69/34 1/70/34 3/71/34
f 3/71/34 5/72/34 7/73/34
f 7/73/34 9/74/34 11/75/34
f 11/75/34 13/76/34 15/66/34
f 15/66/34 17/77/34 19/78/34
f 19/78/34 21/79/34 23/80/34
f 23/80/34 25/81/34 27/82/34
f 27/82/34 29/83/34 31/67/34
f 31/67/34 33/84/34 35/85/34
f 35/85/34 37/86/34 39/87/34
f 39/87/34 41/88/34 43/89/34
f 43/89/34 45/90/34 47/68/34
f 47/68/34 49/91/34 51/92/34
f 51/92/34 53/93/34 47/68/34
f 53/93/34 55/94/34 47/68/34
f 55/94/34 57/95/34 59/96/34
f 59/96/34 61/97/34 55/94/34
f 61/97/34 63/69/34 55/94/34
f 63/69/34 3/71/34 15/66/34
f 3/71/34 7/73/34 15/66/34
f 7/73/34 11/75/34 15/66/34
f 15/66/34 19/78/34 23/80/34
f 23/80/34 27/82/34 15/66/34
f 27/82/34 31/67/34 15/66/34
f 31/67/34 35/85/34 47/68/34
f 35/85/34 39/87/34 47/68/34
f 39/87/34 43/89/34 47/68/34
f 47/68/34 55/94/34 63/69/34
f 63/69/34 15/66/34 47/68/34
f 2/1/1 4/4/1 3/2/1
f 4/4/2 6/6/2 5/5/2
f 6/6/3 8/8/3 7/7/3
f 8/8/4 10/10/4 9/9/4
f 10/10/5 12/12/5 11/11/5
f 12/12/6 14/14/6 13/13/6
f 14/14/7 16/16/7 15/15/7
f 16/16/8 18/18/8 17/17/8
f 18/18/9 20/20/9 19/19/9
f 20/20/10 22/22/10 21/21/10
f 22/22/11 24/24/11 23/23/11
f 24/24/12 26/26/12 25/25/12
f 26/26/13 28/28/13 27/27/13
f 28/28/14 30/30/14 29/29/14
f 30/30/15 32/32/15 31/31/15
f 32/32/16 34/34/16 33/33/16
f 34/34/17 36/36/17 35/35/17
f 36/36/18 38/38/18 37/37/18
f 38/38/19 40/40/19 39/39/19
f 40/40/20 42/42/20 41/41/20
f 42/42/21 44/44/21 43/43/21
f 44/44/22 46/46/22 45/45/22
f 46/46/23 48/48/23 47/47/23
f 48/48/24 50/50/24 49/49/24
f 50/50/25 52/52/25 51/51/25
f 52/52/26 54/54/26 53/53/26
f 54/54/27 56/56/27 55/55/27
f 56/56/28 58/58/28 57/57/28
f 58/58/29 60/60/29 59/59/29
f 60/60/30 62/62/30 61/61/30
f 62/62/32 64/64/32 63/63/32
f 64/64/33 2/98/33 1/65/33
